<svg id="SvgjsSvg1001" width="288" height="288" xmlns="http://www.w3.org/2000/svg" version="1.1" xmlns:xlink="http://www.w3.org/1999/xlink" xmlns:svgjs="http://svgjs.com/svgjs"><defs id="SvgjsDefs1002"></defs><g id="SvgjsG1008"><svg xmlns="http://www.w3.org/2000/svg" id="_лой_1" data-name="Слой 1" viewBox="0 0 255.12 141.73" width="288" height="288"><path fill="#fbcaba" d="M96.19,72.01c-3.72,0-6.9,1.15-9.55,3.46-2.84,2.47-4.25,5.62-4.25,9.48s1.4,7.02,4.21,9.48c2.65,2.31,5.85,3.46,9.59,3.46h1.82v-6.23h-1.35c-2.03,0-3.76-.58-5.25-1.75-1.66-1.25-2.49-2.91-2.49-4.96s.81-3.74,2.45-5c1.49-1.14,3.25-1.72,5.29-1.72h12.28v19.66h6.54v-19.66h11.44l6.05-6.22h-36.78Zm42.18,0l-19.45,17.35v9.13l19.45-17.25v6.83h-5.5l-7.03,6.34h12.53v3.49h7v-25.88h-7Zm25.72,0v9.83h-8.78v-10.45l-6.91,6.23v20.28h6.91v-9.83h8.78v9.83h6.92v-25.88h-6.92Zm37.02,0h-9.19l-11.32,10.6v-11.17l-6.71,6.23v20.22h6.71v-6.19l3.03-2.84,10.47,9.63v-8.95l-5.56-5.21,12.58-12.31Zm40.95-.77v10.47h-8.66v-9.83h-6.83v19.75h-3.28v-19.63h-5.8l-11.7,10.84v-11.37l-6.77,6.23v20.64l17.5-16.08v15.62l16.87-.12v-9.83h8.66v9.83h6.83v-20.29l-6.83-6.23ZM159.52,13.85l5.51,10.26,12.18-1.54-10.38,5.51,4.87,8.07-8.72-4.1-9.23,9.87,3.85-11.92-22.05-1.41,23.2-4.36,.77-10.38Z" class="colord3043a svgShape"></path><path fill="#7a6e87" d="M83.92,109.36v-6.25h1.96l1.17,4.26,1.16-4.26h1.96v6.25h-1.21v-4.92l-1.29,4.92h-1.26l-1.28-4.92v4.92h-1.22Zm7.38-3.08c0-.64,.1-1.17,.29-1.6,.15-.32,.35-.6,.6-.86,.25-.25,.53-.44,.84-.56,.41-.16,.87-.25,1.4-.25,.95,0,1.72,.29,2.29,.86,.57,.57,.86,1.37,.86,2.38s-.29,1.8-.85,2.37c-.57,.57-1.33,.86-2.28,.86s-1.73-.29-2.3-.85c-.57-.57-.85-1.35-.85-2.34m1.35-.04c0,.71,.17,1.25,.51,1.61,.34,.37,.77,.55,1.29,.55s.95-.18,1.28-.54c.33-.36,.5-.91,.5-1.63s-.16-1.25-.49-1.6c-.33-.35-.76-.53-1.3-.53s-.97,.18-1.31,.53c-.33,.36-.49,.9-.49,1.61m10.19,.83l1.27,.39c-.2,.68-.52,1.19-.97,1.52-.45,.33-1.03,.5-1.72,.5-.86,0-1.57-.29-2.12-.85-.55-.57-.83-1.34-.83-2.33,0-1.04,.28-1.85,.83-2.42,.56-.57,1.29-.86,2.2-.86,.79,0,1.44,.23,1.93,.68,.29,.27,.51,.65,.66,1.15l-1.29,.3c-.08-.32-.24-.58-.48-.77-.24-.19-.54-.28-.89-.28-.48,0-.87,.17-1.17,.5-.3,.33-.45,.87-.45,1.62,0,.79,.15,1.35,.44,1.68,.29,.34,.68,.5,1.15,.5,.35,0,.65-.11,.9-.32,.25-.21,.43-.55,.54-1.01m2.5-3.95h1.31v2.66c.29-.03,.49-.1,.59-.22,.1-.12,.26-.44,.48-.97,.27-.67,.54-1.1,.82-1.26,.27-.16,.71-.25,1.31-.25,.03,0,.09,0,.19,0v.93h-.19c-.27,0-.46,.03-.59,.09-.12,.06-.23,.16-.3,.29-.08,.13-.19,.4-.34,.8-.08,.22-.16,.4-.26,.54-.09,.14-.26,.28-.49,.41,.29,.08,.53,.24,.72,.48,.19,.24,.4,.58,.62,1.02l.88,1.71h-1.54l-.77-1.61s-.04-.07-.08-.13c-.01-.02-.07-.12-.16-.29-.17-.31-.31-.5-.41-.57-.11-.08-.27-.12-.49-.12v2.74h-1.31v-6.25Zm5.33,3.16c0-.64,.1-1.17,.3-1.6,.15-.32,.35-.6,.6-.86,.25-.25,.53-.44,.84-.56,.4-.16,.87-.25,1.4-.25,.96,0,1.72,.29,2.29,.86,.57,.57,.86,1.37,.86,2.38s-.28,1.8-.85,2.37c-.57,.57-1.33,.86-2.28,.86s-1.73-.29-2.3-.85c-.57-.57-.85-1.35-.85-2.34m1.35-.04c0,.71,.17,1.25,.51,1.61,.34,.37,.77,.55,1.29,.55s.95-.18,1.28-.54c.33-.36,.5-.91,.5-1.63s-.16-1.25-.49-1.6c-.33-.35-.76-.53-1.3-.53s-.97,.18-1.3,.53c-.33,.36-.49,.9-.49,1.61m6.05-3.12h2.59c.51,0,.9,.02,1.15,.06,.25,.04,.48,.13,.68,.26,.2,.13,.37,.3,.5,.52,.13,.22,.2,.46,.2,.73,0,.29-.08,.56-.25,.81-.16,.24-.39,.43-.67,.55,.4,.11,.7,.3,.91,.57,.21,.27,.32,.58,.32,.94,0,.29-.07,.56-.21,.83-.14,.27-.32,.49-.56,.65-.24,.16-.53,.26-.88,.29-.22,.02-.74,.04-1.58,.04h-2.21v-6.25Zm1.31,1.04v1.45h.86c.51,0,.83,0,.95-.02,.22-.03,.4-.1,.53-.22,.13-.12,.19-.29,.19-.49s-.05-.35-.16-.47c-.11-.12-.27-.19-.49-.22-.13-.01-.5-.02-1.12-.02h-.75Zm0,2.49v1.67h1.21c.47,0,.77-.01,.9-.04,.19-.04,.35-.12,.47-.25,.12-.13,.18-.31,.18-.53,0-.19-.05-.35-.14-.48-.09-.13-.23-.23-.41-.29-.18-.06-.56-.09-1.16-.09h-1.06Zm9.11,.43l1.27,.39c-.19,.68-.52,1.19-.97,1.52-.45,.33-1.03,.5-1.72,.5-.86,0-1.57-.29-2.12-.85-.55-.57-.83-1.34-.83-2.33,0-1.04,.28-1.85,.83-2.42,.56-.57,1.29-.86,2.2-.86,.79,0,1.44,.23,1.93,.68,.29,.27,.51,.65,.66,1.15l-1.3,.3c-.08-.32-.24-.58-.48-.77-.24-.19-.54-.28-.89-.28-.48,0-.87,.17-1.17,.5-.3,.33-.45,.87-.45,1.62,0,.79,.15,1.35,.44,1.68,.29,.34,.68,.5,1.15,.5,.35,0,.65-.11,.9-.32,.25-.21,.43-.55,.54-1.01m2.5-3.95h1.31v2.66c.29-.03,.49-.1,.59-.22,.1-.12,.26-.44,.48-.97,.27-.67,.54-1.1,.82-1.26,.27-.16,.71-.25,1.31-.25,.03,0,.09,0,.19,0v.93h-.19c-.27,0-.46,.03-.59,.09-.12,.06-.22,.16-.3,.29-.08,.13-.19,.4-.34,.8-.08,.22-.16,.4-.26,.54-.09,.14-.26,.28-.49,.41,.29,.08,.53,.24,.72,.48,.19,.24,.4,.58,.62,1.02l.88,1.71h-1.54l-.78-1.61s-.04-.07-.08-.13c-.01-.02-.07-.12-.16-.29-.17-.31-.31-.5-.41-.57-.11-.08-.27-.12-.49-.12v2.74h-1.31v-6.25Zm5.61,0h1.22v4.16l2.63-4.16h1.31v6.25h-1.23v-4.08l-2.62,4.08h-1.31v-6.25Zm6.6,0h1.22v4.16l2.63-4.16h1.31v6.25h-1.23v-4.08l-2.62,4.08h-1.31v-6.25Zm3.36-1.56h.61c-.04,.38-.18,.69-.42,.91-.25,.22-.57,.33-.96,.33s-.71-.11-.96-.33c-.25-.22-.39-.53-.42-.91h.61c.02,.2,.09,.35,.22,.46,.13,.1,.31,.16,.55,.16s.42-.05,.55-.16,.2-.26,.22-.46m6.87,1.56h4.39v1.05h-3.08v5.2h-1.31v-6.25Zm4.77,3.16c0-.64,.1-1.17,.3-1.6,.15-.32,.35-.6,.6-.86,.25-.25,.53-.44,.84-.56,.4-.16,.87-.25,1.4-.25,.96,0,1.72,.29,2.29,.86,.57,.57,.86,1.37,.86,2.38s-.28,1.8-.85,2.37c-.57,.57-1.33,.86-2.28,.86s-1.73-.29-2.3-.85c-.57-.57-.85-1.35-.85-2.34m1.35-.04c0,.71,.17,1.25,.51,1.61,.34,.37,.77,.55,1.29,.55s.95-.18,1.28-.54c.33-.36,.5-.91,.5-1.63s-.16-1.25-.49-1.6c-.33-.35-.76-.53-1.3-.53s-.97,.18-1.3,.53c-.33,.36-.49,.9-.49,1.61m10.19,.83l1.27,.39c-.2,.68-.52,1.19-.97,1.52-.45,.33-1.03,.5-1.72,.5-.86,0-1.57-.29-2.12-.85-.55-.57-.83-1.34-.83-2.33,0-1.04,.28-1.85,.84-2.42,.56-.57,1.29-.86,2.2-.86,.79,0,1.44,.23,1.93,.68,.29,.27,.52,.65,.66,1.15l-1.3,.3c-.08-.32-.24-.58-.48-.77-.25-.19-.54-.28-.89-.28-.48,0-.87,.17-1.17,.5-.3,.33-.45,.87-.45,1.62,0,.79,.15,1.35,.44,1.68,.29,.34,.68,.5,1.15,.5,.35,0,.65-.11,.9-.32,.25-.21,.43-.55,.54-1.01m1.7-3.95h1.46l1.51,3.24,1.29-3.24h1.36l-2.19,4.75c-.24,.51-.48,.91-.73,1.17-.25,.27-.57,.4-.96,.4s-.69-.02-.9-.07v-.94c.18,0,.35,.02,.5,.02,.3,0,.52-.05,.65-.16,.13-.1,.25-.33,.38-.69l-2.38-4.48Zm6.44,0h4.48v5.2h.57v2.42h-1.08v-1.37h-4.08v1.37h-1.09v-2.42h.55c.27-.53,.45-1.15,.53-1.86,.08-.71,.13-1.6,.13-2.68v-.66Zm1.25,1.05c0,1.9-.18,3.28-.53,4.15h2.46v-4.15h-1.93Zm10.8,5.2h-1.42l-.57-1.42h-2.59l-.53,1.42h-1.39l2.52-6.25h1.38l2.59,6.25Zm-2.41-2.47l-.89-2.32-.87,2.32h1.77Zm3.19,2.47v-6.25h2.1c.8,0,1.31,.03,1.56,.09,.37,.09,.68,.3,.93,.61,.25,.31,.38,.72,.38,1.22,0,.38-.07,.7-.22,.97-.14,.26-.33,.47-.55,.62-.22,.15-.45,.25-.68,.3-.31,.06-.77,.09-1.36,.09h-.85v2.36h-1.31Zm1.31-5.19v1.77h.72c.52,0,.86-.03,1.03-.1,.17-.06,.31-.17,.41-.31,.1-.14,.15-.3,.15-.48,0-.23-.07-.41-.21-.56-.14-.15-.31-.24-.53-.28-.16-.03-.47-.04-.94-.04h-.63Zm8.74,2.9l1.27,.39c-.2,.68-.52,1.19-.97,1.52-.45,.33-1.03,.5-1.72,.5-.86,0-1.57-.29-2.12-.85-.55-.57-.83-1.34-.83-2.33,0-1.04,.28-1.85,.84-2.42,.56-.57,1.29-.86,2.19-.86,.79,0,1.44,.23,1.93,.68,.29,.27,.52,.65,.66,1.15l-1.3,.3c-.08-.32-.24-.58-.48-.77-.25-.19-.54-.28-.89-.28-.48,0-.87,.17-1.17,.5-.3,.33-.45,.87-.45,1.62,0,.79,.15,1.35,.44,1.68,.29,.34,.68,.5,1.15,.5,.35,0,.65-.11,.9-.32,.25-.21,.43-.55,.54-1.01m3.71,2.3v-5.19h-1.92v-1.06h5.15v1.06h-1.92v5.19h-1.31Zm4.17-6.25h2.59c.51,0,.9,.02,1.15,.06,.25,.04,.48,.13,.68,.26,.2,.13,.36,.3,.5,.52,.13,.22,.2,.46,.2,.73,0,.29-.08,.56-.25,.81-.16,.24-.38,.43-.66,.55,.39,.11,.7,.3,.91,.57,.21,.27,.32,.58,.32,.94,0,.29-.07,.56-.2,.83-.14,.27-.32,.49-.56,.65-.24,.16-.53,.26-.88,.29-.22,.02-.74,.04-1.58,.04h-2.21v-6.25Zm1.31,1.04v1.45h.86c.51,0,.82,0,.95-.02,.23-.03,.4-.1,.53-.22,.13-.12,.19-.29,.19-.49s-.05-.35-.16-.47c-.11-.12-.28-.19-.49-.22-.13-.01-.5-.02-1.12-.02h-.75Zm0,2.49v1.67h1.21c.47,0,.77-.01,.9-.04,.19-.04,.35-.12,.48-.25,.12-.13,.18-.31,.18-.53,0-.19-.04-.35-.14-.48-.1-.13-.23-.23-.41-.29-.18-.06-.57-.09-1.16-.09h-1.06Zm5.31,2.72v-6.25h4.8v1.06h-3.49v1.39h3.25v1.05h-3.25v1.7h3.62v1.05h-4.93Zm6.13,0v-6.25h1.31v2.46h2.56v-2.46h1.31v6.25h-1.31v-2.73h-2.56v2.73h-1.31Zm6.63,0v-6.25h1.31v2.46h2.56v-2.46h1.31v6.25h-1.31v-2.73h-2.56v2.73h-1.31Zm6.66-6.25h1.31v2.5h1.75c.46,0,.86,.06,1.19,.18,.33,.12,.61,.33,.83,.65,.22,.31,.33,.67,.33,1.07,0,.42-.11,.79-.34,1.09-.23,.31-.49,.51-.77,.61-.28,.1-.7,.15-1.24,.15h-3.06v-6.25Zm1.31,5.2h1.28c.41,0,.69-.02,.85-.06,.16-.04,.3-.13,.43-.26,.12-.13,.19-.3,.19-.5,0-.28-.1-.49-.31-.63-.21-.14-.57-.21-1.11-.21h-1.33v1.65Zm4.85-5.2h1.31v6.25h-1.31v-6.25Zm2.77,0h1.23v4.16l2.63-4.16h1.3v6.25h-1.22v-4.08l-2.62,4.08h-1.31v-6.25Zm3.36-1.56h.61c-.04,.38-.18,.69-.42,.91-.25,.22-.56,.33-.95,.33s-.71-.11-.96-.33c-.25-.22-.38-.53-.42-.91h.6c.02,.2,.1,.35,.22,.46,.13,.1,.31,.16,.55,.16s.42-.05,.55-.16c.13-.1,.2-.26,.22-.46m-161.58,16.78v-5.19h-1.92v-1.06h5.15v1.06h-1.92v5.19h-1.31Zm4.16,0v-6.25h4.8v1.06h-3.49v1.39h3.25v1.05h-3.25v1.7h3.62v1.05h-4.93Zm5.47,0l2.22-3.26-2.01-2.99h1.53l1.3,2.01,1.27-2.01h1.52l-2.02,3.04,2.22,3.21h-1.58l-1.44-2.16-1.44,2.16h-1.57Zm6.79,0v-6.25h1.31v2.46h2.56v-2.46h1.31v6.25h-1.31v-2.73h-2.56v2.73h-1.31Zm6.36-3.09c0-.64,.1-1.17,.29-1.6,.15-.32,.35-.6,.6-.86,.26-.25,.53-.44,.84-.56,.4-.16,.87-.25,1.4-.25,.95,0,1.72,.29,2.29,.86,.57,.57,.86,1.37,.86,2.38s-.29,1.8-.85,2.37c-.57,.57-1.33,.86-2.28,.86s-1.73-.29-2.3-.85c-.57-.57-.85-1.35-.85-2.34m1.35-.04c0,.71,.17,1.24,.51,1.61,.34,.37,.77,.55,1.29,.55s.95-.18,1.28-.54c.33-.36,.5-.9,.5-1.63s-.16-1.25-.49-1.6c-.33-.35-.76-.53-1.3-.53s-.97,.18-1.3,.53c-.33,.36-.49,.9-.49,1.61m6.28-3.12h4.54v6.25h-1.31v-5.19h-1.95v2.67c0,.77-.03,1.3-.08,1.6-.05,.3-.18,.54-.39,.71-.21,.17-.53,.26-.96,.26-.15,0-.43-.01-.83-.04v-.98h.29c.27,0,.46-.03,.55-.1,.09-.07,.14-.24,.14-.53v-4.64Zm5.71,3.16c0-.64,.1-1.17,.3-1.6,.15-.32,.35-.6,.6-.86,.25-.25,.53-.44,.84-.56,.41-.16,.87-.25,1.4-.25,.95,0,1.72,.29,2.29,.86,.57,.57,.86,1.37,.86,2.38s-.29,1.8-.85,2.37c-.57,.57-1.33,.86-2.28,.86s-1.73-.29-2.3-.85c-.57-.57-.85-1.35-.85-2.34m1.35-.04c0,.71,.17,1.24,.51,1.61,.34,.37,.77,.55,1.29,.55s.95-.18,1.28-.54c.33-.36,.5-.9,.5-1.63s-.16-1.25-.49-1.6c-.33-.35-.76-.53-1.3-.53s-.97,.18-1.3,.53c-.33,.36-.49,.9-.49,1.61m6.11-3.12h4.39v1.05h-3.08v5.2h-1.31v-6.25Zm5.17,0h1.23v4.16l2.63-4.16h1.3v6.25h-1.23v-4.08l-2.62,4.08h-1.31v-6.25Zm6.47,0h1.31v1.49c0,.49,.02,.8,.06,.96,.04,.16,.15,.29,.33,.41,.18,.12,.45,.18,.8,.18,.28,0,.53-.03,.75-.09,.22-.06,.41-.15,.57-.26v-2.69h1.31v6.25h-1.31v-2.51c-.27,.11-.53,.2-.78,.26-.26,.06-.51,.09-.76,.09-.65,0-1.19-.15-1.62-.44-.43-.29-.65-.8-.65-1.53v-2.11Zm6.56,6.25v-6.25h4.8v1.06h-3.49v1.39h3.25v1.05h-3.25v1.7h3.62v1.05h-4.93Zm10.27-2.3l1.27,.39c-.2,.68-.52,1.19-.97,1.52-.45,.33-1.03,.5-1.72,.5-.86,0-1.57-.29-2.12-.85-.55-.57-.83-1.35-.83-2.33,0-1.04,.28-1.85,.83-2.42,.56-.57,1.29-.86,2.2-.86,.79,0,1.44,.22,1.93,.68,.29,.27,.52,.65,.66,1.15l-1.3,.3c-.08-.32-.24-.58-.48-.77-.25-.19-.54-.28-.89-.28-.48,0-.87,.16-1.17,.5-.3,.33-.45,.87-.45,1.62,0,.79,.15,1.35,.44,1.69,.29,.34,.68,.5,1.15,.5,.35,0,.65-.11,.9-.32,.25-.21,.43-.55,.54-1.01m2.5-3.95h1.31v2.66c.29-.03,.49-.1,.59-.22,.1-.12,.26-.44,.48-.97,.27-.67,.54-1.1,.82-1.26,.27-.16,.71-.25,1.31-.25,.03,0,.09,0,.19,0v.93h-.18c-.27,0-.47,.03-.59,.09-.12,.06-.22,.16-.3,.29-.08,.13-.19,.4-.34,.8-.08,.22-.16,.4-.26,.54-.09,.14-.26,.28-.49,.41,.29,.08,.53,.24,.72,.48,.19,.24,.4,.58,.62,1.02l.89,1.72h-1.54l-.77-1.62s-.04-.07-.08-.13c-.02-.03-.07-.12-.16-.29-.17-.31-.3-.5-.41-.57-.11-.08-.27-.12-.49-.12v2.74h-1.31v-6.25Zm5.61,0h1.23v4.16l2.63-4.16h1.3v6.25h-1.22v-4.08l-2.62,4.08h-1.31v-6.25Zm6.6,0h1.23v4.16l2.63-4.16h1.3v6.25h-1.23v-4.08l-2.62,4.08h-1.31v-6.25Zm3.36-1.56h.6c-.04,.39-.17,.69-.42,.91-.25,.22-.57,.33-.96,.33s-.71-.11-.96-.33c-.25-.22-.39-.52-.42-.91h.61c.02,.2,.09,.36,.22,.46,.12,.1,.31,.15,.55,.15s.43-.05,.55-.15c.13-.1,.2-.26,.22-.46m5.48,1.56h1.46l1.51,3.24,1.29-3.24h1.36l-2.19,4.75c-.24,.51-.48,.91-.73,1.17-.25,.27-.57,.4-.96,.4s-.69-.02-.9-.07v-.94c.19,0,.35,.02,.5,.02,.3,0,.52-.05,.65-.16,.13-.11,.26-.34,.38-.69l-2.38-4.48Zm6.38,6.25v-6.25h1.31v2.46h2.56v-2.46h1.31v6.25h-1.31v-2.73h-2.56v2.73h-1.31Zm6.64-6.25h1.23v4.16l2.62-4.16h1.31v6.25h-1.22v-4.08l-2.62,4.08h-1.31v-6.25Zm6.58,0h2.59c.51,0,.9,.02,1.15,.06,.25,.04,.48,.13,.68,.26,.2,.13,.36,.3,.5,.52,.13,.22,.2,.46,.2,.73,0,.29-.08,.56-.25,.8-.16,.25-.39,.43-.67,.55,.4,.11,.7,.3,.91,.57,.21,.27,.32,.58,.32,.94,0,.29-.07,.56-.21,.83-.14,.27-.33,.48-.56,.64-.24,.16-.53,.26-.88,.29-.22,.02-.74,.04-1.58,.04h-2.21v-6.25Zm1.31,1.04v1.45h.86c.51,0,.83,0,.95-.02,.22-.03,.4-.1,.53-.22,.13-.12,.19-.29,.19-.49s-.05-.35-.16-.47c-.11-.12-.27-.19-.49-.22-.13-.01-.5-.02-1.12-.02h-.75Zm0,2.49v1.67h1.21c.47,0,.77-.01,.9-.04,.19-.04,.35-.12,.47-.25,.12-.13,.18-.31,.18-.53,0-.19-.05-.35-.14-.48-.09-.13-.23-.23-.41-.29-.18-.06-.57-.09-1.16-.09h-1.06Zm5.32,2.72v-6.25h4.8v1.06h-3.49v1.39h3.25v1.05h-3.25v1.7h3.62v1.05h-4.93Zm6.12,0v-6.25h2.1c.79,0,1.31,.03,1.55,.09,.37,.09,.68,.3,.93,.61,.25,.31,.38,.72,.38,1.22,0,.38-.07,.71-.22,.97-.14,.26-.33,.47-.55,.62-.22,.15-.45,.25-.68,.3-.31,.06-.77,.09-1.36,.09h-.85v2.36h-1.31Zm1.31-5.19v1.77h.72c.52,0,.86-.03,1.03-.1,.17-.07,.31-.17,.41-.31,.1-.14,.15-.3,.15-.48,0-.23-.07-.42-.21-.56-.14-.15-.32-.24-.53-.28-.16-.03-.47-.04-.94-.04h-.63Zm8.74,2.89l1.27,.39c-.19,.68-.52,1.19-.97,1.52-.45,.33-1.03,.5-1.72,.5-.86,0-1.57-.29-2.12-.85-.55-.57-.83-1.35-.83-2.33,0-1.04,.28-1.85,.83-2.42,.56-.57,1.29-.86,2.2-.86,.79,0,1.43,.22,1.93,.68,.29,.27,.52,.65,.66,1.15l-1.29,.3c-.08-.32-.24-.58-.48-.77-.24-.19-.54-.28-.89-.28-.48,0-.87,.16-1.17,.5-.3,.33-.45,.87-.45,1.62,0,.79,.15,1.35,.44,1.69,.29,.34,.68,.5,1.15,.5,.35,0,.65-.11,.9-.32,.25-.21,.43-.55,.54-1.01m2.5-3.95h1.23v4.16l2.63-4.16h1.3v6.25h-1.23v-4.08l-2.62,4.08h-1.31v-6.25Zm8.04,6.25v-5.19h-1.92v-1.06h5.15v1.06h-1.92v5.19h-1.31Zm4.16,0v-6.25h4.8v1.06h-3.49v1.39h3.25v1.05h-3.25v1.7h3.62v1.05h-4.93Zm7.58,0v-5.19h-1.92v-1.06h5.15v1.06h-1.92v5.19h-1.31Z" class="color274193 svgShape"></path><path fill="#7a6e87" fill-rule="evenodd" d="M163.16 57.76c-1.2 3.87-3.11 7.38-4.47 9.61h9.73c1.06-2.23 2.48-5.8 3.72-10.96 1.95-8.13 1.22-16.35 1.22-16.35l-9.35-5.38-2.1 1.15s5.83 7.06 1.25 21.92zM156.7 19.49c-17.39-4.45-35.07-3.5-52.81-1.79l-5.7 6.19-.45-6.7L79.8 2.83l-10.5 23.83-15.64-4.86-10 4.86v25.38C18.33 71.25-3.83 105.95 11.01 126.49c8.43 11.68 29.52 13.94 47.88 11.57 21.28-2.75 38.59-10.48 47.2-14.96h-11.84c-5.04 2.48-12.04 5.63-18.14 7.28-19.83 5.38-41.72 8.06-55.94 1.29-9.53-4.55-12.5-18.6-8.76-30.42 4.63-14.65 16.82-30.88 32.24-42.27l.24 59.46h9.74l.02-90.48 16.15 4.36-.26 86.12h10V11.55l18.45 15.38v40.44h5.89V22.82h14.61v44.54h2.83V24.36c6.88-1.57 13.75-1.63 20.63.56l15.25-2.88-.51-2.56z" class="color274193 svgShape"></path></svg></g></svg>